<svg width="62" height="33" viewBox="0 0 62 33" fill="none" xmlns="http://www.w3.org/2000/svg">
<path d="M35.719 19.973C35.7021 19.3542 35.8701 18.7444 36.2016 18.2215C36.5332 17.6987 37.0131 17.2866 37.58 17.038C38.147 16.7894 38.7752 16.7155 39.3843 16.8258C39.9935 16.9361 40.5559 17.2256 40.9997 17.6572C41.4434 18.0889 41.7484 18.6431 41.8755 19.2489C42.0026 19.8548 41.9462 20.4848 41.7133 21.0585C41.4805 21.6321 41.0819 22.1232 40.5684 22.4691C40.055 22.8149 39.4501 22.9998 38.831 23C38.4278 23.006 38.0274 22.9323 37.6527 22.7834C37.278 22.6344 36.9363 22.413 36.6473 22.1319C36.3582 21.8507 36.1275 21.5153 35.9682 21.1449C35.8089 20.7744 35.7242 20.3762 35.719 19.973ZM37.89 19.973C37.8846 20.1599 37.9351 20.3442 38.0351 20.5023C38.135 20.6604 38.2798 20.785 38.4509 20.8604C38.6221 20.9357 38.8118 20.9583 38.9959 20.9252C39.18 20.8921 39.35 20.8049 39.4842 20.6746C39.6184 20.5444 39.7107 20.3771 39.7493 20.1942C39.788 20.0112 39.7711 19.8209 39.701 19.6475C39.6309 19.4741 39.5106 19.3256 39.3557 19.221C39.2007 19.1163 39.018 19.0603 38.831 19.06C38.5855 19.0571 38.3487 19.1515 38.1726 19.3225C37.9965 19.4936 37.8952 19.7275 37.891 19.973H37.89ZM20.262 19.973C20.2677 19.57 20.3528 19.1721 20.5124 18.802C20.672 18.4319 20.9029 18.0969 21.192 17.816C21.4811 17.5352 21.8227 17.3141 22.1972 17.1653C22.5718 17.0166 22.972 16.9431 23.375 16.949C23.7803 16.9362 24.1841 17.0051 24.5623 17.1514C24.9405 17.2977 25.2855 17.5185 25.5767 17.8007C25.868 18.0829 26.0995 18.4207 26.2577 18.7942C26.4158 19.1676 26.4973 19.569 26.4973 19.9745C26.4973 20.38 26.4158 20.7814 26.2577 21.1549C26.0995 21.5283 25.868 21.8661 25.5767 22.1483C25.2855 22.4306 24.9405 22.6514 24.5623 22.7977C24.1841 22.944 23.7803 23.0128 23.375 23C22.9719 23.0057 22.5716 22.9319 22.197 22.7828C21.8224 22.6338 21.4809 22.4124 21.1919 22.1313C20.9029 21.8502 20.6721 21.5149 20.5127 21.1445C20.3533 20.7742 20.2685 20.3761 20.263 19.973H20.262ZM22.434 19.973C22.4288 20.1597 22.4794 20.3436 22.5793 20.5014C22.6792 20.6591 22.8239 20.7835 22.9948 20.8586C23.1658 20.9338 23.3552 20.9562 23.539 20.9232C23.7228 20.8901 23.8925 20.803 24.0265 20.6729C24.1605 20.5429 24.2527 20.3759 24.2913 20.1932C24.33 20.0105 24.3132 19.8205 24.2433 19.6473C24.1734 19.4742 24.0534 19.3258 23.8987 19.2212C23.7441 19.1166 23.5617 19.0605 23.375 19.06C23.1295 19.0573 22.893 19.1518 22.7169 19.3228C22.5408 19.4939 22.4395 19.7276 22.435 19.973H22.434ZM42.761 20.349C42.7806 20.2278 42.7937 20.1056 42.8 19.983C42.7678 18.985 42.3487 18.0386 41.6313 17.344C40.914 16.6494 39.9545 16.261 38.956 16.261C37.9575 16.261 36.998 16.6494 36.2807 17.344C35.5633 18.0386 35.1442 18.985 35.112 19.983C35.1182 20.1056 35.1312 20.2278 35.151 20.349H27.051C27.0703 20.2278 27.083 20.1056 27.089 19.983C27.0809 19.4861 26.975 18.9956 26.7774 18.5396C26.5797 18.0836 26.2941 17.671 25.937 17.3253C25.5799 16.9797 25.1581 16.7078 24.6959 16.5252C24.2336 16.3426 23.7399 16.2528 23.243 16.261C22.2401 16.2455 21.2721 16.6287 20.5516 17.3263C19.831 18.024 19.4168 18.9792 19.4 19.982C19.4064 20.1046 19.419 20.2267 19.438 20.348H16.509C16.4432 20.3492 16.3778 20.3374 16.3165 20.3132C16.2553 20.2891 16.1994 20.2531 16.1521 20.2072C16.1048 20.1614 16.067 20.1067 16.0409 20.0463C16.0148 19.9858 16.0009 19.9208 16 19.855V17.942C16.0018 17.8377 16.045 17.7383 16.12 17.6658C16.195 17.5932 16.2957 17.5534 16.4 17.555V16.111C16.4037 15.7837 16.5174 15.4671 16.7227 15.2121C16.928 14.9571 17.213 14.7785 17.532 14.705L22.716 13.453L26.568 10.453C27.7883 9.50884 29.2881 8.99765 30.831 9.00001H37.738C38.176 8.99865 38.5996 9.15643 38.93 9.44401L42.33 12.409L43.423 12.351C43.7962 12.3263 44.1649 12.4434 44.4554 12.6789C44.746 12.9143 44.9369 13.2508 44.99 13.621L45.49 17.558C45.5559 17.5567 45.6214 17.5684 45.6828 17.5925C45.7442 17.6166 45.8002 17.6526 45.8476 17.6984C45.895 17.7442 45.9328 17.799 45.959 17.8595C45.9852 17.92 45.9991 17.9851 46 18.051V19.851C45.9992 19.917 45.9854 19.9822 45.9593 20.0428C45.9332 20.1035 45.8953 20.1583 45.8479 20.2043C45.8005 20.2502 45.7445 20.2863 45.683 20.3104C45.6216 20.3346 45.556 20.3463 45.49 20.345L42.761 20.349ZM27.448 11.755L25.6 13.191L35.237 12.719V10.549H30.984C29.704 10.5464 28.4596 10.9708 27.448 11.755ZM36.842 12.638L40.024 12.482L38.057 10.769C37.8942 10.6269 37.6851 10.549 37.469 10.55H36.843L36.842 12.638Z" fill="#FD4100"/>
</svg>
