<svg width="62" height="32" viewBox="0 0 62 32" fill="none" xmlns="http://www.w3.org/2000/svg">
<path d="M27.735 21.2707C27.699 20.2695 27.2757 19.3213 26.5544 18.6257C25.833 17.9301 24.8698 17.5414 23.8675 17.5414C22.8652 17.5414 21.902 17.9301 21.1806 18.6257C20.4593 19.3213 20.036 20.2695 20 21.2707C20.036 22.2719 20.4593 23.2201 21.1806 23.9157C21.902 24.6113 22.8652 25 23.8675 25C24.8698 25 25.833 24.6113 26.5544 23.9157C27.2757 23.2201 27.699 22.2719 27.735 21.2707ZM24.513 21.2707C24.5178 21.3992 24.484 21.5262 24.4161 21.6353C24.3481 21.7445 24.2491 21.8308 24.1317 21.8833C24.0143 21.9358 23.8838 21.9519 23.7572 21.9298C23.6305 21.9076 23.5133 21.848 23.4207 21.7588C23.3281 21.6696 23.2644 21.5547 23.2376 21.429C23.2108 21.3032 23.2222 21.1724 23.2704 21.0532C23.3186 20.934 23.4014 20.8319 23.508 20.7601C23.6147 20.6882 23.7404 20.6499 23.869 20.65C24.0365 20.6473 24.1983 20.7112 24.3189 20.8275C24.4394 20.9439 24.5088 21.1033 24.512 21.2707H24.513ZM42 20.0303C41.9742 18.6885 41.4166 17.4119 40.4496 16.4809C39.4826 15.5499 38.1854 15.0408 36.843 15.0655C35.5011 15.0411 34.2044 15.5502 33.2378 16.481C32.2712 17.4117 31.7138 18.688 31.688 20.0293C31.7135 21.3706 32.2708 22.6469 33.2375 23.5775C34.2042 24.5082 35.5011 25.017 36.843 24.9921C38.1849 25.017 39.4819 24.5084 40.4488 23.578C41.4158 22.6476 41.9737 21.3716 42 20.0303V20.0303ZM38.778 20.0303C38.7685 20.5338 38.5594 21.013 38.1965 21.3624C37.8336 21.7118 37.3468 21.9028 36.843 21.8934C36.3394 21.9025 35.8528 21.7114 35.4901 21.362C35.1275 21.0126 34.9185 20.5336 34.909 20.0303C34.919 19.5273 35.1282 19.0487 35.4908 18.6998C35.8534 18.3509 36.3397 18.16 36.843 18.1691C37.3464 18.1597 37.833 18.3505 38.1958 18.6994C38.5586 19.0484 38.768 19.5271 38.778 20.0303ZM30.4 21.8934V20.0303H28.863C28.9697 20.4352 29.0241 20.852 29.025 21.2707C29.0256 21.4783 29.0122 21.6857 28.985 21.8914L30.4 21.8934ZM37.489 20.0303C37.4938 19.9019 37.4601 19.775 37.3922 19.6659C37.3244 19.5568 37.2254 19.4704 37.1081 19.4179C36.9908 19.3654 36.8605 19.3491 36.7339 19.3711C36.6073 19.3931 36.4901 19.4525 36.3974 19.5415C36.3048 19.6305 36.2409 19.7452 36.2138 19.8708C36.1868 19.9964 36.198 20.1272 36.2459 20.2464C36.2937 20.3657 36.3762 20.4679 36.4826 20.54C36.589 20.612 36.7145 20.6507 36.843 20.651C37.0109 20.6539 37.1732 20.5903 37.2942 20.474C37.4153 20.3576 37.4853 20.1981 37.489 20.0303ZM30.529 18.7898C30.8563 17.3662 31.6612 16.0975 32.8099 15.1944C33.9585 14.2914 35.3817 13.8085 36.843 13.826C38.3304 13.8241 39.775 14.3238 40.943 15.2444L41.764 14.2868C40.4674 13.2689 38.8869 12.678 37.2403 12.5954C35.5937 12.5129 33.962 12.9428 32.57 13.826H23.864C23.194 13.8153 22.5471 14.0701 22.0645 14.5348C21.582 14.9995 21.3032 15.6363 21.289 16.3059V16.9736C22.077 16.5343 22.9647 16.3044 23.867 16.3059C24.7621 16.3006 25.6434 16.5264 26.4256 16.9614C27.2078 17.3964 27.8645 18.0258 28.332 18.7888L30.529 18.7898ZM26.446 12.5845V10.7234C26.436 10.2203 26.2268 9.74184 25.8642 9.3929C25.5016 9.04395 25.0153 8.85308 24.512 8.86218V10.0986C24.6798 10.0957 24.842 10.1594 24.9629 10.2757C25.0838 10.3921 25.1536 10.5516 25.157 10.7194V12.5845H26.446ZM32.2 12.5845C34.1898 11.44 36.5323 11.0705 38.778 11.547V8.24045H40.066V7H29.752V8.24045H30.874L29.69 12.5845H32.2Z" fill="#8C929B"/>
</svg>
